# xmcd
#
# Track frame offsets:
#	150
#	13747
#	26069
#	42390
#	59811
#	76612
#	88070
#	107867
#	118315
#	132748
#	146749
#	155874
#
# Disc length: 2220 seconds
#
# Revision: 1
# Processed by: cddbd v1.5.1PL2 Copyright (c) Steve Scherf et al.
# Submitted via: EasyCDDAExtractor 8.2.3.1
#
DISCID=b508aa0c
DTITLE=Jacó e Jacózinho - Amado e Antônio
DYEAR=1974
DGENRE=Sertanejo
TTITLE0=Piadas
TTITLE1=Casal feliz
TTITLE2=Piadas
TTITLE3=Cravo e canela
TTITLE4=Piadas
TTITLE5=Pepino
TTITLE6=Piadas
TTITLE7=Meu Xodó
TTITLE8=Piadas
TTITLE9=Mulher ciumenta
TTITLE10=Piadas
TTITLE11=Briga de velha
EXTD=
EXTT0=
EXTT1=
EXTT2=
EXTT3=
EXTT4=
EXTT5=
EXTT6=
EXTT7=
EXTT8=
EXTT9=
EXTT10=
EXTT11=
PLAYORDER=
